<?xml version="1.0" encoding="utf-8"?>
<!-- Generator: Adobe Illustrator 16.0.0, SVG Export Plug-In . SVG Version: 6.00 Build 0)  -->
<!DOCTYPE svg PUBLIC "-//W3C//DTD SVG 1.1//EN" "http://www.w3.org/Graphics/SVG/1.1/DTD/svg11.dtd">
<svg version="1.1" id="screenshot-7616b214-362e-80ea-8001-7e3aff4c1735"
	 xmlns="http://www.w3.org/2000/svg" xmlns:xlink="http://www.w3.org/1999/xlink" x="0px" y="0px" width="242px" height="55px"
	 viewBox="0 0 242 55" enable-background="new 0 0 242 55" xml:space="preserve">
<g id="shape-61e52417-b697-8013-8001-8088d4c883e7_6_">
	<g id="shape-61e52417-b697-8013-8001-8088d4c8f2dd_6_">
		<g id="fills-61e52417-b697-8013-8001-8088d4c8f2dd_6_">
			<path fill="#00FFBB" d="M21.018,32.494l12.437-3.38c1.071-0.294,2.174,0.332,2.463,1.415l2.145,7.854
				c0.288,1.085-0.343,2.186-1.414,2.475l-12.438,3.366l0.969,3.562l0,0c0.13,0.477,0.085,0.991-0.163,1.46
				c-0.515,0.979-1.734,1.349-2.707,0.839L9.613,43.413H9.609l0,0c-0.05-0.025-0.089-0.053-0.135-0.083
				c-0.936-0.574-1.228-1.82-0.645-2.761l7.497-12.07c0.252-0.466,0.693-0.837,1.251-0.982c1.072-0.3,2.176,0.334,2.468,1.411
				L21.018,32.494z"/>
		</g>
	</g>
	<g id="shape-61e52417-b697-8013-8001-8088d4c8f2de_6_">
		<g id="fills-61e52417-b697-8013-8001-8088d4c8f2de_6_">
			<path fill="#00FFBB" d="M37.758,22.398l-12.436,3.361c-1.08,0.303-2.184-0.326-2.475-1.402l-2.136-7.871
				c-0.288-1.068,0.34-2.174,1.413-2.456l12.434-3.38L33.585,7.1h0.013c-0.129-0.476-0.086-0.99,0.151-1.46
				c0.519-0.981,1.733-1.362,2.721-0.853l12.686,6.681l0.012,0.007l0,0c0.042,0.028,0.085,0.038,0.13,0.07
				c0.94,0.589,1.224,1.822,0.645,2.759l-7.501,12.068c-0.251,0.475-0.689,0.846-1.249,0.997c-1.071,0.288-2.177-0.343-2.469-1.413
				L37.758,22.398z"/>
		</g>
	</g>
</g>
<g>
	<path fill="#FFFFFF" d="M77.083,31.941l-3.439,3.772v9.173H65.26V10.113h8.383v15.333l2.914-4.418l7.499-10.915h10.365
		l-11.75,15.381l11.75,19.393h-9.936L77.083,31.941z"/>
	<path fill="#FFFFFF" d="M125.254,28.217c0,3.391-0.629,6.393-1.887,9.004s-3.045,4.621-5.362,6.029
		c-2.316,1.41-4.956,2.113-7.917,2.113c-2.962,0-5.589-0.68-7.882-2.041c-2.292-1.361-4.08-3.309-5.361-5.84
		c-1.282-2.531-1.955-5.438-2.019-8.717v-1.958c0-3.407,0.625-6.412,1.875-9.016s3.041-4.613,5.374-6.03
		c2.332-1.417,4.987-2.126,7.965-2.126c2.945,0,5.572,0.701,7.881,2.102c2.309,1.401,4.104,3.396,5.386,5.983
		c1.28,2.587,1.932,5.553,1.946,8.896L125.254,28.217L125.254,28.217z M116.728,26.759c0-3.455-0.578-6.078-1.731-7.869
		c-1.155-1.791-2.807-2.687-4.956-2.687c-4.203,0-6.425,3.152-6.663,9.457l-0.024,2.556c0,3.406,0.565,6.025,1.696,7.856
		c1.13,1.83,2.81,2.746,5.039,2.746c2.117,0,3.749-0.897,4.896-2.698c1.146-1.8,1.728-4.388,1.744-7.763L116.728,26.759
		L116.728,26.759z"/>
	<path fill="#FFFFFF" d="M138.51,44.887h-8.359V10.113h8.359V44.887z"/>
	<path fill="#FFFFFF" d="M173.379,44.887h-8.336l-12.324-21.638v21.638h-8.383V10.113h8.383L165.02,31.75V10.113h8.359V44.887z"/>
	<path fill="#FFFFFF" d="M178.68,44.887V10.113h11.201c3.072,0,5.834,0.697,8.287,2.09c2.451,1.394,4.365,3.36,5.744,5.899
		c1.377,2.54,2.072,5.386,2.09,8.538v1.6c0,3.186-0.674,6.039-2.02,8.562c-1.346,2.522-3.24,4.497-5.685,5.922
		c-2.442,1.426-5.17,2.146-8.18,2.162H178.68L178.68,44.887z M187.062,16.585v21.853h2.914c2.401,0,4.25-0.855,5.541-2.566
		c1.289-1.711,1.934-4.256,1.934-7.631v-1.504c0-3.359-0.645-5.891-1.934-7.595c-1.291-1.704-3.17-2.556-5.638-2.556H187.062z"/>
	<path fill="#FFFFFF" d="M222.744,21.672l5.684-11.56h9.576l-9.719,17.244l9.982,17.531h-9.674l-5.851-11.775l-5.853,11.775h-9.647
		l9.959-17.531l-9.697-17.244h9.554L222.744,21.672z"/>
</g>
</svg>
