<?xml version="1.0" encoding="UTF-8" standalone="no" ?>
<!DOCTYPE svg PUBLIC "-//W3C//DTD SVG 1.1//EN" "http://www.w3.org/Graphics/SVG/1.1/DTD/svg11.dtd">
<svg xmlns="http://www.w3.org/2000/svg" xmlns:xlink="http://www.w3.org/1999/xlink" version="1.1" width="128" height="128" viewBox="0 0 128 128" xml:space="preserve">
<desc>Created with Fabric.js 4.6.0</desc>
<defs>
</defs>
<g transform="matrix(0.98 0 0 0.98 63.98 64)" id="NSGb_gwvODAVZ0tqCd7g3"  >
<path style="stroke: rgb(119,156,42); stroke-width: 0; stroke-dasharray: none; stroke-linecap: butt; stroke-dashoffset: 0; stroke-linejoin: miter; stroke-miterlimit: 4; fill: rgb(27,12,44); fill-rule: nonzero; opacity: 1;" vector-effect="non-scaling-stroke"  transform=" translate(0, 0)" d="M -65.50802 -38.39293 C -65.50802 -53.36818 -53.36818 -65.50802 -38.39293000000001 -65.50802 L 38.39291999999999 -65.50802 L 38.39291999999999 -65.50802 C 53.36816999999999 -65.50802 65.50800999999998 -53.36818 65.50800999999998 -38.39293000000001 L 65.50800999999998 38.39291999999999 L 65.50800999999998 38.39291999999999 C 65.50800999999998 53.36816999999999 53.368169999999985 65.50800999999998 38.39291999999999 65.50800999999998 L -38.39293000000001 65.50800999999998 L -38.39293000000001 65.50800999999998 C -53.36818000000001 65.50800999999998 -65.50802 53.368169999999985 -65.50802 38.39291999999999 z" stroke-linecap="round" />
</g>
<g transform="matrix(1 0 0 1 64.22 96.27)" style="" id="g-4jY7KyHssoNUf0uLvAf"  >
		<text xml:space="preserve" font-family="Roboto" font-size="55" font-style="normal" font-weight="700" letter-spacing="0.11" line-height="1" style="stroke: none; stroke-width: 1; stroke-dasharray: none; stroke-linecap: butt; stroke-dashoffset: 0; stroke-linejoin: miter; stroke-miterlimit: 4; fill: rgb(248,248,248); fill-rule: nonzero; opacity: 1; white-space: pre;" ><tspan x="-52.61" y="-15.06" >K</tspan><tspan x="-17.59" y="-15.06" >D</tspan><tspan x="17.67" y="-15.06" >X</tspan></text>
</g>
</svg>